<svg width="25" height="24" viewBox="0 0 25 24" fill="none" xmlns="http://www.w3.org/2000/svg">
<path d="M6.34462 20.7118L6.3446 20.7117C6.26492 20.7408 6.18036 20.7487 6.12974 20.6855L6.12547 20.6802L6.12586 20.68C6.10626 20.6473 6.10581 20.6103 6.11515 20.5752C6.12433 20.5408 6.14378 20.5045 6.17013 20.4669L6.17227 20.4638L6.17238 20.4639C6.42549 20.1545 6.71762 19.7708 7.04879 19.3129L7.04931 19.3121C7.38677 18.8623 7.66046 18.4516 7.8707 18.0803C8.02854 17.7781 8.06638 17.5099 7.99378 17.2723L7.99341 17.271L7.99342 17.271C7.92828 17.0366 7.73461 16.8376 7.39608 16.6787L7.39581 16.6786C6.34103 16.1759 5.43743 15.5843 4.68559 14.9034C3.93367 14.2224 3.35471 13.4698 2.94956 12.6452L2.94941 12.6449C2.55113 11.82 2.3519 10.9519 2.3519 10.0415C2.3519 8.97479 2.61155 7.97879 3.13072 7.05424L3.13079 7.05413C3.6564 6.12365 4.38061 5.30741 5.30256 4.6053C6.22447 3.90323 7.29472 3.35409 8.51273 2.95752C9.7315 2.55364 11.0418 2.3519 12.4433 2.3519C13.8377 2.3519 15.1445 2.55363 16.3632 2.95749C17.5884 3.35405 18.6621 3.90319 19.5841 4.6053L19.5538 4.64508L19.5841 4.6053C20.506 5.30738 21.2267 6.12361 21.7452 7.05412C22.2715 7.97867 22.5347 8.97471 22.5347 10.0415C22.5347 11.0942 22.2714 12.0866 21.7453 13.018C21.2268 13.9486 20.5061 14.7649 19.5841 15.4669C18.662 16.1691 17.5883 16.7183 16.3631 17.1148C15.1444 17.5116 13.8377 17.7098 12.4433 17.7098H12.4428H12.4422H12.4417H12.4412H12.4406H12.4401H12.4395H12.439H12.4385H12.4379H12.4374H12.4368H12.4363H12.4358H12.4352H12.4347H12.4341H12.4336H12.433H12.4325H12.4319H12.4314H12.4308H12.4303H12.4297H12.4292H12.4286H12.4281H12.4275H12.427H12.4264H12.4259H12.4253H12.4248H12.4242H12.4237H12.4231H12.4226H12.422H12.4214H12.4209H12.4203H12.4198H12.4192H12.4187H12.4181H12.4175H12.417H12.4164H12.4158H12.4153H12.4147H12.4142H12.4136H12.413H12.4125H12.4119H12.4113H12.4108H12.4102H12.4096H12.4091H12.4085H12.4079H12.4074H12.4068H12.4062H12.4057H12.4051H12.4045H12.4039H12.4034H12.4028H12.4022H12.4017H12.4011H12.4005H12.3999H12.3994H12.3988H12.3982H12.3976H12.3971H12.3965H12.3959H12.3953H12.3947H12.3942H12.3936H12.393H12.3924H12.3918H12.3913H12.3907H12.3901H12.3895H12.3889H12.3883H12.3877H12.3872H12.3866H12.386H12.3854H12.3848H12.3842H12.3836H12.3831H12.3825H12.3819H12.3813H12.3807H12.3801H12.3795H12.3789H12.3783H12.3777H12.3771H12.3765H12.3759H12.3754H12.3748H12.3742H12.3736H12.373H12.3724H12.3718H12.3712H12.3706H12.37H12.3694H12.3688H12.3682H12.3676H12.367H12.3664H12.3658H12.3652H12.3646H12.3639H12.3633H12.3627H12.3621H12.3615H12.3609H12.3603H12.3597H12.3591H12.3585H12.3579H12.3573H12.3567H12.356H12.3554H12.3548H12.3542H12.3536H12.353H12.3524H12.3518H12.3511H12.3505H12.3499H12.3493H12.3487H12.3481H12.3474H12.3468H12.3462H12.3456H12.345H12.3444H12.3437H12.3431H12.3425H12.3419H12.3412H12.3406H12.34H12.3394H12.3387H12.3381H12.3375H12.3369H12.3362H12.3356H12.335H12.3344H12.3337H12.3331H12.3325H12.3318H12.3312H12.3306H12.33H12.3293H12.3287H12.3281H12.3274H12.3268H12.3262H12.3255H12.3249H12.3243H12.3236H12.323H12.3223H12.3217H12.3211H12.3204H12.3198H12.3192H12.3185H12.3179H12.3172H12.3166H12.316H12.3153H12.3147H12.314H12.3134H12.3127H12.3121H12.3114H12.3108H12.3102H12.3095H12.3089H12.3082H12.3076H12.3069H12.3063H12.3056H12.305H12.3043H12.3037H12.303H12.3024H12.3017H12.3011H12.3004H12.2997H12.2991H12.2984H12.2978H12.2971H12.2965H12.2958H12.2952H12.2945H12.2938H12.2932H12.2925H12.2919H12.2912H12.2905H12.2899H12.2892H12.2886H12.2879H12.2872H12.2866H12.2859H12.2852H12.2846H12.2839H12.2832H12.2826H12.2819H12.2812H12.2806H12.2799H12.2792H12.2786H12.2779H12.2772H12.2766H12.2759H12.2752H12.2745H12.2739H12.2732H12.2725H12.2718H12.2712H12.2705H12.2698H12.2691H12.2685H12.2678H12.2671H12.2664H12.2658H12.2651H12.2644H12.2637H12.263H12.2624H12.2617H12.261H12.2603H12.2596H12.2589H12.2583H12.2576H12.2569H12.2562H12.2555H12.2548H12.2541H12.2535H12.2528H12.2521H12.2514H12.2507H12.25H12.2493H12.2486H12.2479H12.2473H12.2466H12.2459H12.2452H12.2445H12.2438H12.2431H12.2424H12.2417H12.241H12.2403H12.2396H12.2389H12.2382H12.2375H12.2368H12.2361H12.2354H12.2347H12.234H12.2333H12.2326H12.2319H12.2312H12.2305H12.2298H12.2291H12.2284H12.2277H12.227H12.2263H12.2256H12.2249H12.2242H12.2235H12.2227H12.222H12.2213H12.2206H12.2199H12.2192H12.2185H12.2178H12.2171H12.2163H12.2156H12.2149H12.2142H12.2135H12.2128H12.2121H12.2113H12.2106H12.2099H12.2092H12.2085H12.2078H12.207H12.2063H12.2056H12.2049H12.2042H12.2034H12.2027H12.202H12.2013H12.2005H12.1998H12.1991H12.1984H12.1976H12.1969H12.1962H12.1955H12.1947H12.194H12.1933H12.1925H12.1918H12.1911H12.1904H12.1896H12.1889H12.1882H12.1874H12.1867H12.186H12.1852H12.1845H12.1838H12.183H12.1823H12.1816H12.1808H12.1801H12.1793H12.1786H12.1779H12.1771H12.1764H12.1757H12.1749H12.1742H12.1734H12.1727H12.1719H12.1712H12.1705H12.1697H12.169H12.1682H12.1675H12.1667H12.166H12.1652H12.1645H12.1637H12.163H12.1622H12.1615H12.1607H12.16H12.1592H12.1585H12.1577H12.157H12.1562H12.1555H12.1547H12.154H12.1532H12.1525H12.1517H12.151H12.1502H12.1494H12.1487H12.1479H12.1472H12.1464H12.1457H12.1449H12.1441H12.1434H12.1426H12.1419H12.1411H12.1403H12.1396H12.1388H12.138H12.1373H12.1365H12.1357H12.135H12.1342H12.1334H12.1327H12.1319H12.1311H12.1304H12.1296H12.1288H12.1281H12.1273H12.1265H12.1257H12.125H12.1242H12.1234H12.1227H12.1219H12.1211H12.1203H12.1196H12.1188H12.118H12.1172H12.1164H12.1157H12.1149H12.1141H12.1133H12.1125H12.1118H12.111H12.1102H12.1094H12.1086H12.1079H12.1071H12.1063H12.1055H12.1047C11.9702 17.7098 11.8181 17.7062 11.6487 17.6992C11.4292 17.6993 11.2279 17.737 11.0443 17.8119L11.0428 17.8125L11.0428 17.8124C10.8588 17.8807 10.6623 17.9974 10.4536 18.1644L10.4522 18.1655L10.4522 18.1654C10.0352 18.4764 9.56541 18.8049 9.04287 19.1509M6.34462 20.7118L9.01506 19.1094M6.34462 20.7118L6.34639 20.711C6.65993 20.5828 7.05724 20.3769 7.53776 20.0942M6.34462 20.7118L7.51255 20.0511M9.04287 19.1509C9.0428 19.151 9.04273 19.151 9.04266 19.151L9.01506 19.1094M9.04287 19.1509C9.04289 19.1509 9.04291 19.1509 9.04293 19.1509L9.01506 19.1094M9.04287 19.1509C8.52716 19.4971 8.02547 19.8116 7.53776 20.0942M9.01506 19.1094C8.50011 19.4551 7.99928 19.769 7.51255 20.0511M7.53776 20.0942C7.53781 20.0942 7.53786 20.0942 7.5379 20.0941L7.51255 20.0511M7.53776 20.0942C7.53771 20.0943 7.53767 20.0943 7.53762 20.0943L7.51255 20.0511M9.28782 21.5095L9.28754 21.5097C8.42872 21.9742 7.6127 22.347 6.83944 22.6282C6.0658 22.9095 5.43727 23.0485 4.95193 23.0485C4.50216 23.0485 4.15582 22.931 3.90651 22.7018L3.90594 22.7013C3.65479 22.4774 3.51601 22.1968 3.48872 21.8569C3.46853 21.5253 3.57296 21.1984 3.80679 20.8748C3.96282 20.6761 4.13967 20.4285 4.33728 20.1321C4.54224 19.8353 4.74364 19.5278 4.94148 19.2099L4.94174 19.2094C5.13953 18.8845 5.31273 18.5876 5.46126 18.3188L5.48634 18.2735L5.44009 18.25C4.34443 17.6952 3.39324 16.9966 2.58613 16.1545C1.77897 15.3122 1.15459 14.372 0.712631 13.3337C0.270887 12.289 0.05 11.1916 0.05 10.0415C0.05 8.65272 0.369035 7.35577 1.00708 6.14981C1.64562 4.94287 2.52994 3.88289 3.66071 2.96985C4.79149 2.05681 6.10535 1.34352 7.60283 0.830301L7.60296 0.830257C9.10685 0.310217 10.7202 0.05 12.4433 0.05C14.1594 0.05 15.7656 0.310211 17.2624 0.830234L17.2627 0.830325C18.7672 1.34355 20.0846 2.05684 21.2153 2.96985L21.2154 2.96995C22.3532 3.88296 23.2374 4.94285 23.8689 6.14961L23.869 6.14981C24.507 7.35577 24.826 8.65272 24.826 10.0415C24.826 11.1778 24.6156 12.2506 24.1951 13.26C23.7742 14.2701 23.1744 15.189 22.3954 16.0172C21.6163 16.8455 20.6823 17.5619 19.5931 18.1662C18.511 18.7634 17.3091 19.2204 15.9869 19.5369L15.9866 19.537C14.6651 19.8604 13.2514 20.0116 11.7457 19.9906L11.7292 19.9903L11.7157 20C10.9558 20.5488 10.1465 21.052 9.28782 21.5095ZM2.4019 10.0415C2.4019 8.98331 2.65937 7.99575 3.17432 7.07872L8.0416 17.2577C7.97106 17.0038 7.76297 16.7957 7.41732 16.6335C6.36627 16.1326 5.46688 15.5436 4.71915 14.8664C3.97142 14.1892 3.39652 13.4415 2.99444 12.6232C2.59941 11.805 2.4019 10.9444 2.4019 10.0415Z" fill="black" stroke="white" stroke-width="0.1"/>
</svg>
