<svg width="32" height="32" viewBox="0 0 32 32" fill="none" xmlns="http://www.w3.org/2000/svg">
<path d="M9.44391 11.3479C9.81505 8.00754 12.6385 5.48047 15.9993 5.48047V5.48047C19.3602 5.48047 22.1836 8.00754 22.5548 11.3479L22.8521 14.0236C22.8905 14.3697 22.9097 14.5427 22.9361 14.713C23.0768 15.6207 23.3727 16.4974 23.811 17.3047C23.8932 17.4562 23.9828 17.6055 24.1619 17.9041L24.8444 19.0415C25.6165 20.3284 26.0025 20.9718 25.7496 21.466C25.7368 21.4909 25.723 21.5153 25.7082 21.5391C25.4146 22.0102 24.6642 22.0102 23.1635 22.0102H8.83513C7.33443 22.0102 6.58408 22.0102 6.2905 21.5391C6.27569 21.5153 6.26188 21.4909 6.24911 21.466C5.99612 20.9718 6.38217 20.3284 7.15427 19.0415L7.83676 17.9041C8.01591 17.6055 8.10549 17.4562 8.1877 17.3047C8.62595 16.4974 8.92188 15.6207 9.06254 14.713C9.08893 14.5427 9.10815 14.3697 9.14661 14.0236L9.44391 11.3479Z" stroke="#A7A7B1" stroke-width="2.3"/>
<path d="M11.1664 22.1235C11.4515 23.3845 12.0796 24.4988 12.9533 25.2935C13.827 26.0883 14.8976 26.519 15.9989 26.519C17.1003 26.519 18.1708 26.0883 19.0446 25.2935C19.9183 24.4988 20.5464 23.3845 20.8315 22.1235" stroke="#A7A7B1" stroke-width="2.3" stroke-linecap="round"/>
</svg>
