<svg width="32" height="32" viewBox="0 0 32 32" fill="none" xmlns="http://www.w3.org/2000/svg">
<path d="M7.01562 15.7227C7.01562 13.9802 7.01562 13.1089 7.36786 12.3431C7.72009 11.5772 8.3816 11.0102 9.7046 9.87624L10.988 8.77621C13.3793 6.72651 14.5749 5.70166 15.9992 5.70166C17.4234 5.70166 18.6191 6.72651 21.0104 8.77621L22.2938 9.87624C23.6168 11.0102 24.2783 11.5772 24.6305 12.3431C24.9828 13.1089 24.9828 13.9802 24.9828 15.7227V21.1646C24.9828 23.5846 24.9828 24.7945 24.231 25.5463C23.4792 26.2981 22.2692 26.2981 19.8493 26.2981H12.1491C9.72915 26.2981 8.51918 26.2981 7.7674 25.5463C7.01562 24.7945 7.01562 23.5846 7.01562 21.1646V15.7227Z" stroke="#A7A7B1" stroke-width="2.3"/>
<path d="M19.2078 26.2981V19.5979C19.2078 19.0456 18.7601 18.5979 18.2078 18.5979H13.791C13.2387 18.5979 12.791 19.0456 12.791 19.5979V26.2981" stroke="#A7A7B1" stroke-width="2.3" stroke-linecap="round" stroke-linejoin="round"/>
</svg>
